{
	"asset":{
		"generator":"Khronos glTF Blender I/O v4.1.63",
		"version":"2.0"
	},
	"scene":0,
	"scenes":[
		{
			"name":"Scene",
			"nodes":[
				0,
				1,
				2
			]
		}
	],
	"nodes":[
		{
			"name":"Empty",
			"rotation":[
				0.70710688829422,
				0,
				0,
				0.7071066498756409
			],
			"scale":[
				5,
				5,
				5
			],
			"translation":[
				3.7785773277282715,
				0,
				0
			]
		},
		{
			"name":"Empty.001",
			"rotation":[
				0.5,
				0.5,
				-0.5,
				0.5
			],
			"scale":[
				5,
				5,
				5
			],
			"translation":[
				0,
				0,
				5.0584187507629395
			]
		},
		{
			"mesh":0,
			"name":"Cube.001",
			"rotation":[
				-0.04267437756061554,
				0,
				0,
				0.9990890622138977
			],
			"scale":[
				0.7797589898109436,
				5.653323650360107,
				0.2753777503967285
			],
			"translation":[
				0,
				2.8215174674987793,
				1.1125552654266357
			]
		}
	],
	"materials":[
		{
			"doubleSided":true,
			"name":"Material.001",
			"pbrMetallicRoughness":{
				"baseColorFactor":[
					0,
					0,
					0,
					1
				],
				"metallicFactor":0,
				"roughnessFactor":0.5
			}
		},
		{
			"doubleSided":true,
			"name":"Material.002",
			"pbrMetallicRoughness":{
				"baseColorFactor":[
					0.17904900014400482,
					0.05788975954055786,
					0.028819698840379715,
					1
				],
				"metallicFactor":0.7979274392127991,
				"roughnessFactor":0.3808290362358093
			}
		},
		{
			"doubleSided":true,
			"name":"Material.005",
			"pbrMetallicRoughness":{
				"baseColorFactor":[
					0.8000937700271606,
					0.6190904378890991,
					0.3523315191268921,
					1
				],
				"metallicFactor":0,
				"roughnessFactor":0.5
			}
		},
		{
			"doubleSided":true,
			"name":"Material.006",
			"pbrMetallicRoughness":{
				"baseColorFactor":[
					0.8001017570495605,
					0.6807551980018616,
					0.11729568243026733,
					1
				],
				"roughnessFactor":0.2772020697593689
			}
		},
		{
			"doubleSided":true,
			"name":"Material.004",
			"pbrMetallicRoughness":{
				"baseColorFactor":[
					0.8001105785369873,
					0.5053760409355164,
					0.2892923355102539,
					1
				],
				"metallicFactor":0,
				"roughnessFactor":0.5
			}
		}
	],
	"meshes":[
		{
			"name":"Cube.002",
			"primitives":[
				{
					"attributes":{
						"POSITION":0,
						"NORMAL":1,
						"TEXCOORD_0":2
					},
					"indices":3,
					"material":0
				},
				{
					"attributes":{
						"POSITION":4,
						"NORMAL":5,
						"TEXCOORD_0":6
					},
					"indices":7,
					"material":1
				},
				{
					"attributes":{
						"POSITION":8,
						"NORMAL":9,
						"TEXCOORD_0":10
					},
					"indices":11,
					"material":2
				},
				{
					"attributes":{
						"POSITION":12,
						"NORMAL":13,
						"TEXCOORD_0":14
					},
					"indices":15,
					"material":3
				},
				{
					"attributes":{
						"POSITION":16,
						"NORMAL":17,
						"TEXCOORD_0":18
					},
					"indices":19,
					"material":4
				}
			]
		}
	],
	"accessors":[
		{
			"bufferView":0,
			"componentType":5126,
			"count":3332,
			"max":[
				3.4229629039764404,
				1.352555513381958,
				1
			],
			"min":[
				-4.177577018737793,
				-2.5468521118164062,
				-6.27906608581543
			],
			"type":"VEC3"
		},
		{
			"bufferView":1,
			"componentType":5126,
			"count":3332,
			"type":"VEC3"
		},
		{
			"bufferView":2,
			"componentType":5126,
			"count":3332,
			"type":"VEC2"
		},
		{
			"bufferView":3,
			"componentType":5123,
			"count":6048,
			"type":"SCALAR"
		},
		{
			"bufferView":4,
			"componentType":5126,
			"count":1609,
			"max":[
				5.427527904510498,
				1.6504875421524048,
				0.1587059497833252
			],
			"min":[
				-5.427527904510498,
				-2.502760648727417,
				-11.132245063781738
			],
			"type":"VEC3"
		},
		{
			"bufferView":5,
			"componentType":5126,
			"count":1609,
			"type":"VEC3"
		},
		{
			"bufferView":6,
			"componentType":5126,
			"count":1609,
			"type":"VEC2"
		},
		{
			"bufferView":7,
			"componentType":5123,
			"count":3456,
			"type":"SCALAR"
		},
		{
			"bufferView":8,
			"componentType":5126,
			"count":162,
			"max":[
				1.0706740617752075,
				-1.3871148824691772,
				2.3996124267578125
			],
			"min":[
				-1.0706740617752075,
				-1.4319467544555664,
				-2.659571647644043
			],
			"type":"VEC3"
		},
		{
			"bufferView":9,
			"componentType":5126,
			"count":162,
			"type":"VEC3"
		},
		{
			"bufferView":10,
			"componentType":5126,
			"count":162,
			"type":"VEC2"
		},
		{
			"bufferView":11,
			"componentType":5123,
			"count":276,
			"type":"SCALAR"
		},
		{
			"bufferView":12,
			"componentType":5126,
			"count":768,
			"max":[
				0.856548011302948,
				-1.8562638759613037,
				-0.4915332794189453
			],
			"min":[
				-0.856548011302948,
				-1.908803105354309,
				-1.0523695945739746
			],
			"type":"VEC3"
		},
		{
			"bufferView":13,
			"componentType":5126,
			"count":768,
			"type":"VEC3"
		},
		{
			"bufferView":14,
			"componentType":5126,
			"count":768,
			"type":"VEC2"
		},
		{
			"bufferView":15,
			"componentType":5123,
			"count":1488,
			"type":"SCALAR"
		},
		{
			"bufferView":16,
			"componentType":5126,
			"count":384,
			"max":[
				0.7377947568893433,
				0.9456424713134766,
				2.630324363708496
			],
			"min":[
				-0.7377947568893433,
				-1.8651010990142822,
				-0.8119921684265137
			],
			"type":"VEC3"
		},
		{
			"bufferView":17,
			"componentType":5126,
			"count":384,
			"type":"VEC3"
		},
		{
			"bufferView":18,
			"componentType":5126,
			"count":384,
			"type":"VEC2"
		},
		{
			"bufferView":19,
			"componentType":5123,
			"count":576,
			"type":"SCALAR"
		}
	],
	"bufferViews":[
		{
			"buffer":0,
			"byteLength":39984,
			"byteOffset":0,
			"target":34962
		},
		{
			"buffer":0,
			"byteLength":39984,
			"byteOffset":39984,
			"target":34962
		},
		{
			"buffer":0,
			"byteLength":26656,
			"byteOffset":79968,
			"target":34962
		},
		{
			"buffer":0,
			"byteLength":12096,
			"byteOffset":106624,
			"target":34963
		},
		{
			"buffer":0,
			"byteLength":19308,
			"byteOffset":118720,
			"target":34962
		},
		{
			"buffer":0,
			"byteLength":19308,
			"byteOffset":138028,
			"target":34962
		},
		{
			"buffer":0,
			"byteLength":12872,
			"byteOffset":157336,
			"target":34962
		},
		{
			"buffer":0,
			"byteLength":6912,
			"byteOffset":170208,
			"target":34963
		},
		{
			"buffer":0,
			"byteLength":1944,
			"byteOffset":177120,
			"target":34962
		},
		{
			"buffer":0,
			"byteLength":1944,
			"byteOffset":179064,
			"target":34962
		},
		{
			"buffer":0,
			"byteLength":1296,
			"byteOffset":181008,
			"target":34962
		},
		{
			"buffer":0,
			"byteLength":552,
			"byteOffset":182304,
			"target":34963
		},
		{
			"buffer":0,
			"byteLength":9216,
			"byteOffset":182856,
			"target":34962
		},
		{
			"buffer":0,
			"byteLength":9216,
			"byteOffset":192072,
			"target":34962
		},
		{
			"buffer":0,
			"byteLength":6144,
			"byteOffset":201288,
			"target":34962
		},
		{
			"buffer":0,
			"byteLength":2976,
			"byteOffset":207432,
			"target":34963
		},
		{
			"buffer":0,
			"byteLength":4608,
			"byteOffset":210408,
			"target":34962
		},
		{
			"buffer":0,
			"byteLength":4608,
			"byteOffset":215016,
			"target":34962
		},
		{
			"buffer":0,
			"byteLength":3072,
			"byteOffset":219624,
			"target":34962
		},
		{
			"buffer":0,
			"byteLength":1152,
			"byteOffset":222696,
			"target":34963
		}
	],
	"buffers":[
		{
			"byteLength":223848,
			"uri":"violinprefab.bin"
		}
	]
}
